<svg width="170" height="100" viewBox="0 0 170 100" fill="none" xmlns="http://www.w3.org/2000/svg">
<rect width="170" height="100" fill="#212E74"/>
<path d="M54.0196 64.3874C53.0241 64.4848 52.9307 64.5498 52.9307 65.5604V70.3738C52.9307 71.3885 53.0363 71.4331 54.0196 71.5346V71.8917H50.6837V71.5346C51.6792 71.4128 51.7726 71.3885 51.7726 70.3738V67.9793H47.7866V70.3738C47.7866 71.3804 47.8841 71.421 48.8633 71.5346V71.8917H45.5396V71.5346C46.5066 71.4291 46.6204 71.3885 46.6204 70.3738V65.5604C46.6204 64.5457 46.5107 64.4808 45.5396 64.3874V64.0303H48.8633V64.3874C47.9044 64.4727 47.7866 64.5579 47.7866 65.5604V67.4517H51.7726V65.5604C51.7726 64.5538 51.6426 64.4727 50.6837 64.3874V64.0303H54.0196V64.3874Z" fill="#CEA2CC"/>
<path d="M59.0419 64.3225C57.7051 64.3225 56.5267 65.4752 56.5267 67.7155C56.5267 69.9315 57.6888 71.6077 59.3913 71.6077C60.8013 71.6077 61.8659 70.5119 61.8659 68.1985C61.87 65.6822 60.5981 64.3225 59.0419 64.3225ZM59.2735 63.8599C61.3783 63.8599 63.2271 65.4549 63.2271 67.8576C63.2271 70.4551 61.4433 72.0785 59.2044 72.0785C56.8599 72.0785 55.1533 70.3089 55.1533 68.024C55.1493 65.8729 56.6771 63.8599 59.2735 63.8599Z" fill="#CEA2CC"/>
<path d="M72.6623 64.3877C71.8984 64.4405 71.6302 64.6394 71.6017 65.1751C71.5855 65.4714 71.5611 65.9584 71.5611 67.0258V68.3814C71.5611 69.5827 71.4108 70.5446 70.7119 71.2792C70.1471 71.8718 69.3141 72.0666 68.473 72.0666C67.7497 72.0666 66.994 71.9164 66.4535 71.4943C65.7303 70.9423 65.3808 70.1266 65.3808 68.7182V65.6337C65.3808 64.542 65.2833 64.4648 64.3203 64.3796V64.0225H67.6075V64.3796C66.6486 64.4446 66.5511 64.542 66.5511 65.6337V68.6939C66.5511 70.3863 67.3556 71.3441 68.7818 71.3441C70.4518 71.3441 71.0126 70.2808 71.0126 68.3083V67.0218C71.0126 65.9584 70.976 65.5038 70.9516 65.167C70.911 64.6191 70.6225 64.4283 69.7367 64.3796V64.0225H72.6623V64.3877Z" fill="#CEA2CC"/>
<path d="M77.5259 65.8973C77.3146 65.1018 76.9733 64.2982 75.8397 64.2982C74.9376 64.2982 74.5882 64.9516 74.5882 65.5888C74.5882 66.3924 75.1042 66.8145 76.1241 67.3381C77.5503 68.0686 78.2126 68.6368 78.2126 69.7976C78.2126 71.0963 77.0952 72.0785 75.5024 72.0785C74.7669 72.0785 74.1249 71.8715 73.613 71.6848C73.5195 71.3561 73.3651 70.4551 73.2798 69.8138L73.6739 69.7164C73.9177 70.52 74.4744 71.6199 75.7218 71.6199C76.5711 71.6199 77.0871 71.0395 77.0871 70.2562C77.0871 69.3633 76.5995 68.9818 75.543 68.4095C74.2712 67.7196 73.5398 67.1351 73.5398 65.9866C73.5398 64.8745 74.4541 63.8599 76.0916 63.8599C76.7986 63.8599 77.4609 64.0425 77.7169 64.0871C77.7657 64.5255 77.8225 65.0369 77.916 65.8202L77.5259 65.8973Z" fill="#CEA2CC"/>
<path d="M85.6038 69.9476C85.5347 70.2642 85.2056 71.5345 85.0837 71.8957H79.1228V71.5386C80.2483 71.4493 80.3296 71.3478 80.3296 70.3535V65.6009C80.3296 64.5335 80.1955 64.4685 79.3016 64.3874V64.0302H83.0479C84.2101 64.0302 84.6733 64.018 84.8236 64.0059C84.8358 64.294 84.8846 65.2153 84.9333 65.8769L84.5514 65.9377C84.4417 65.5238 84.3035 65.2275 84.1613 64.9799C83.9622 64.6106 83.7062 64.5254 82.9992 64.5254H81.9143C81.5242 64.5254 81.4958 64.5578 81.4958 64.9231V67.5693H82.8123C83.6778 67.5693 83.7509 67.3867 83.9012 66.5587H84.2954V69.0913H83.9012C83.7387 68.2146 83.6412 68.0888 82.8001 68.0888H81.4958V70.4387C81.4958 71.2829 81.7192 71.3884 82.3491 71.4006H83.4299C84.1572 71.4006 84.2913 71.2951 84.5554 70.9785C84.7992 70.7066 85.0512 70.2195 85.2259 69.8462L85.6038 69.9476Z" fill="#CEA2CC"/>
<path d="M93.1249 64.3225C91.7881 64.3225 90.6138 65.4752 90.6138 67.7155C90.6138 69.9315 91.7718 71.6077 93.4784 71.6077C94.8884 71.6077 95.953 70.5119 95.953 68.1985C95.953 65.6822 94.6811 64.3225 93.1249 64.3225ZM93.3565 63.8599C95.4572 63.8599 97.3101 65.4549 97.3101 67.8576C97.3101 70.4551 95.5263 72.0785 93.2874 72.0785C90.9429 72.0785 89.2363 70.3089 89.2363 68.024C89.2363 65.8729 90.7641 63.8599 93.3565 63.8599Z" fill="#CEA2CC"/>
<path d="M103.819 65.9381C103.705 65.5769 103.592 65.2603 103.417 65.0005C103.181 64.615 103.007 64.5257 102.344 64.5257H101.117C100.755 64.5257 100.719 64.5622 100.719 64.9234V67.6914H102.186C103.031 67.6914 103.096 67.5372 103.279 66.693H103.657V69.2499H103.267C103.112 68.4057 103.011 68.2109 102.186 68.2109H100.719V70.3295C100.719 71.3928 100.833 71.4456 101.93 71.5389V71.8961H98.4719V71.5389C99.4431 71.4659 99.5487 71.3847 99.5487 70.3295V65.5972C99.5487 64.5419 99.4309 64.4851 98.4719 64.3918V64.0346H102.361C103.445 64.0346 103.888 64.0224 104.096 64.0103C104.108 64.4039 104.161 65.2887 104.217 65.8894L103.819 65.9381Z" fill="#CEA2CC"/>
<path d="M116.448 64.3874C115.453 64.4848 115.359 64.5498 115.359 65.5604V70.3738C115.359 71.3885 115.465 71.4331 116.448 71.5346V71.8917H113.112V71.5346C114.108 71.4128 114.201 71.3885 114.201 70.3738V67.9793H110.215V70.3738C110.215 71.3804 110.313 71.421 111.292 71.5346V71.8917H107.968V71.5346C108.935 71.4291 109.049 71.3885 109.049 70.3738V65.5604C109.049 64.5457 108.939 64.4808 107.968 64.3874V64.0303H111.292V64.3874C110.333 64.4727 110.215 64.5579 110.215 65.5604V67.4517H114.201V65.5604C114.201 64.5538 114.067 64.4727 113.112 64.3874V64.0303H116.448V64.3874Z" fill="#CEA2CC"/>
<path d="M117.635 64.0265H120.946V64.3837C120.016 64.473 119.853 64.5541 119.853 65.6175V67.6914C120.097 67.659 120.377 67.4641 120.739 67.1192C121.442 66.4454 122.206 65.654 122.73 65.0574C123.08 64.6515 123.039 64.4892 122.511 64.4161L122.19 64.3796V64.0225H125.176V64.3796C124.278 64.4892 123.941 64.5501 123.136 65.3821C122.755 65.7595 121.873 66.624 121.141 67.3546C122.035 68.4382 123.307 69.9439 123.99 70.6988C124.575 71.3482 124.737 71.4456 125.465 71.5308V71.888H123.441C122.584 70.9018 121.588 69.672 120.528 68.4017C120.256 68.0567 120.052 68.0242 119.857 68.0405V70.3133C119.857 71.3604 119.963 71.4375 120.954 71.5268V71.8839H117.639V71.5268C118.618 71.4416 118.72 71.3604 118.72 70.3133V65.6215C118.72 64.546 118.626 64.4608 117.639 64.3877V64.0265H117.635Z" fill="#CEA2CC"/>
<mask id="mask0_75_2275" style="mask-type:luminance" maskUnits="userSpaceOnUse" x="90" y="27" width="27" height="24">
<path d="M90.179 27.7913C90.179 28.2215 90.2034 28.5827 90.1709 28.944C90.1384 29.3498 90.3213 29.4797 90.6991 29.5243C91.6418 29.642 92.1294 30.2062 92.1294 31.1396V44.3585C92.1294 45.4218 92.1254 46.4892 92.1294 47.5526C92.1335 48.2628 91.8613 48.7864 91.1908 49.0948C91.0527 49.1598 90.9023 49.3343 90.882 49.4763C90.8373 49.8132 90.8698 50.1622 90.8698 50.5356H96.5991C96.5991 50.1582 96.6153 49.8132 96.5909 49.4723C96.5787 49.3505 96.4812 49.1841 96.3756 49.1395C95.5467 48.7823 95.3679 48.1167 95.3719 47.2969C95.3841 43.3113 95.3801 39.3299 95.3801 35.3443V34.6341C95.6483 34.8411 95.7905 34.9466 95.9286 35.0602C97.9603 36.773 100.167 38.2259 102.507 39.48C104.506 40.5515 106.457 41.692 108.167 43.1936C110.418 45.1661 112.377 47.3537 113.218 50.3246C113.246 50.422 113.38 50.5559 113.466 50.56C114.193 50.5762 114.92 50.5681 115.701 50.5681V49.7767C115.701 43.4777 115.705 37.1829 115.697 30.884C115.697 30.1372 115.9 29.5568 116.635 29.2362C116.765 29.1794 116.924 29.0251 116.936 28.9034C116.976 28.5503 116.952 28.1891 116.952 27.8278H111.19C111.353 28.3433 110.89 28.948 111.584 29.2768C112.214 29.573 112.446 30.0844 112.446 30.746C112.442 34.8411 112.446 38.9321 112.442 43.0272C112.442 43.1409 112.397 43.2505 112.352 43.4656C111.739 42.8487 111.215 42.2845 110.658 41.7569C108.57 39.7723 106.067 38.4126 103.58 37.0124C100.882 35.4945 98.2691 33.8224 96.2009 31.4806C95.3069 30.47 94.5999 29.293 93.7954 28.2012C93.6735 28.0389 93.4866 27.8116 93.324 27.8076C92.7918 27.7873 92.2595 27.7832 91.7272 27.7832C91.203 27.7873 90.691 27.7913 90.179 27.7913Z" fill="white"/>
</mask>
<g mask="url(#mask0_75_2275)">
<path d="M116.972 27.7871H90.1384V50.5761H116.972V27.7871Z" fill="url(#paint0_linear_75_2275)"/>
</g>
<mask id="mask1_75_2275" style="mask-type:luminance" maskUnits="userSpaceOnUse" x="24" y="27" width="25" height="24">
<path d="M48.189 27.8237H41.2651C41.2529 28.4609 41.0579 29.1103 41.9559 29.4796C37.6813 32.9984 32.9191 35.6081 28.5348 38.9361C28.5348 36.0627 28.5104 33.3475 28.5632 30.6282C28.5714 30.2305 28.8436 29.7394 29.1483 29.4593C29.7619 28.8952 29.9041 28.6436 29.6644 27.8278H24.0083C24.0083 28.12 24.0286 28.3757 24.0042 28.6273C23.9758 28.948 24.0895 29.1428 24.3943 29.2645C25.0688 29.5324 25.3085 30.0925 25.3126 30.7621C25.3207 36.363 25.3207 41.9638 25.3126 47.5647C25.3126 48.2587 25.0322 48.8066 24.3496 49.1029C24.2196 49.1597 24.0449 49.2977 24.0327 49.4154C23.992 49.7888 24.0164 50.1662 24.0164 50.5518H29.766C29.766 50.1865 29.8025 49.8699 29.7497 49.5696C29.7213 49.391 29.5912 49.1597 29.445 49.0826C28.807 48.7579 28.551 48.2303 28.5429 47.5606C28.5348 46.1482 28.5307 44.7318 28.5429 43.3194C28.551 42.5726 28.803 41.9192 29.4003 41.4281C29.6969 41.1805 29.9691 40.9005 30.2779 40.6732C31.0703 40.0888 30.8102 39.9914 31.6717 40.6935C35.5805 43.8714 39.4854 47.0574 43.3983 50.2312C43.5893 50.3854 43.8372 50.5558 44.0606 50.5599C45.3487 50.5883 46.6368 50.5761 47.9289 50.568C48.0427 50.568 48.2052 50.5234 48.258 50.4422C48.5018 50.0769 48.2133 49.2571 47.8192 49.0298C46.8806 48.49 45.881 48.0233 45.0399 47.3577C41.8218 44.813 38.6605 42.2073 35.479 39.622C34.9142 39.1634 34.3494 38.7048 33.7399 38.2056C33.9715 38.0432 34.134 37.9255 34.3006 37.816C35.7553 36.85 37.2302 35.9125 38.6646 34.9181C41.5373 32.9294 44.3735 30.9001 47.5673 29.4269C48.3881 29.0454 48.4856 28.7491 48.189 27.8237Z" fill="white"/>
</mask>
<g mask="url(#mask1_75_2275)">
<path d="M48.4978 27.8237H23.9758V50.5883H48.4978V27.8237Z" fill="url(#paint1_linear_75_2275)"/>
</g>
<mask id="mask2_75_2275" style="mask-type:luminance" maskUnits="userSpaceOnUse" x="122" y="27" width="25" height="24">
<path d="M134.766 32.751C136.249 36.0588 137.675 39.2326 139.13 42.4794H129.906C131.527 39.2244 133.116 36.0466 134.766 32.751ZM135.168 27H135.16C135.001 27 134.798 27.0162 134.538 27.0406C132.913 30.393 131.283 33.7616 129.654 37.1262C128.033 40.4745 126.407 43.8228 124.786 47.1752C124.457 47.8571 124.132 48.6079 123.392 48.8879C122.669 49.1599 122.645 49.6469 122.73 50.2273C122.75 50.3571 122.954 50.5601 123.076 50.5641C124.697 50.5844 126.314 50.5804 127.935 50.5722C128.045 50.5722 128.207 50.5235 128.26 50.4424C128.492 50.0974 128.236 49.2248 127.87 49.03C127.102 48.6201 126.976 48.34 127.326 47.5283C127.614 46.8546 127.984 46.2214 128.309 45.564C128.581 45.0079 129.036 44.7563 129.642 44.7563C133.047 44.7563 136.452 44.7522 139.861 44.7644C140.024 44.7644 140.267 44.8821 140.332 45.016C140.836 46.0347 141.312 47.0697 141.775 48.1087C141.925 48.4415 141.893 48.8271 141.507 48.9488C140.905 49.1396 140.97 49.5738 140.946 50.0365C140.922 50.487 141.092 50.5925 141.515 50.5844C142.661 50.5682 143.806 50.5722 144.952 50.5722C145.464 50.5722 145.972 50.5722 146.484 50.5722C146.643 50.5722 146.801 50.5479 146.992 50.5317C146.992 50.1542 147.016 49.8255 146.98 49.5008C146.964 49.3668 146.85 49.1842 146.732 49.1355C145.834 48.7621 145.33 48.0397 144.944 47.1996C142.006 40.787 139.065 34.3704 136.127 27.9538C135.773 27.1826 135.696 27 135.168 27Z" fill="white"/>
</mask>
<g mask="url(#mask2_75_2275)">
<path d="M147.016 27H122.645V50.5885H147.016V27Z" fill="url(#paint2_linear_75_2275)"/>
</g>
<mask id="mask3_75_2275" style="mask-type:luminance" maskUnits="userSpaceOnUse" x="65" y="27" width="20" height="25">
<path d="M74.3157 27.0117H74.2994H74.2832C72.2515 27.0117 70.3011 27.4379 68.5214 28.5946C65.2667 30.7091 65.0473 34.9909 67.8672 37.3855C68.749 38.1363 69.716 38.7329 70.7887 39.1104C72.9017 39.8531 75.0349 40.5268 77.164 41.2249C78.2977 41.5983 79.3338 42.134 80.2278 42.9295C81.2558 43.8427 81.5849 45.4052 80.8291 46.4605C80.3822 47.0855 79.7808 47.6577 79.1266 48.0595C76.9812 49.3826 74.596 49.1513 72.2515 48.8753C70.1874 48.6318 68.6555 47.4426 67.4771 45.803C67.1033 45.2794 66.6807 45.1374 66.0834 45.1779C65.7137 45.2023 65.5593 45.2835 65.5715 45.6771C65.5958 46.5741 65.5552 47.4751 65.5918 48.3761C65.5999 48.5871 65.7624 48.8591 65.9412 48.9808C69.7688 51.5134 73.9581 52.0329 78.3465 50.9939C80.6625 50.446 82.6048 49.2162 83.706 47.0043C84.669 45.0805 84.5064 43.1852 83.1777 41.4765C82.2391 40.2671 81.0364 39.3417 79.5939 38.806C77.611 38.0714 75.6037 37.422 73.6127 36.7117C72.2637 36.2328 70.8903 35.7945 69.8257 34.7555C68.6758 33.6313 68.8546 31.7806 70.0817 30.7334C72.5034 28.6757 78.2611 28.9233 80.2806 32.0322C80.4634 32.3122 81.5768 32.4949 81.7962 32.2879C81.8734 32.2148 81.8897 32.0565 81.8897 31.9388C81.9018 31.4802 81.8937 31.0175 81.8937 30.5589C81.8937 30.1734 81.8572 29.7837 81.9018 29.4022C81.9669 28.8705 81.7434 28.6311 81.2599 28.4322C79.3379 27.6367 77.3347 27.1741 75.2787 27.0442C74.9577 27.0239 74.6367 27.0117 74.3157 27.0117Z" fill="white"/>
</mask>
<g mask="url(#mask3_75_2275)">
<path d="M84.6729 27.0117H65.0513V52.0369H84.6729V27.0117Z" fill="url(#paint3_linear_75_2275)"/>
</g>
<mask id="mask4_75_2275" style="mask-type:luminance" maskUnits="userSpaceOnUse" x="54" y="27" width="6" height="24">
<path d="M54.0237 27.8115C54.0237 28.1809 53.9952 28.4934 54.0359 28.7978C54.0562 28.9479 54.1781 29.1549 54.3081 29.2117C55.0801 29.5527 55.2995 30.1574 55.2955 30.9488C55.2833 35.2793 55.2873 39.6139 55.2873 43.9484C55.2873 45.1782 55.2873 46.4079 55.2873 47.6418C55.2873 48.1937 55.1126 48.7213 54.6047 48.9324C54.0277 49.1678 54.0033 49.5493 54.0074 50.0526C54.0155 50.4544 54.1131 50.5964 54.5397 50.5883C55.3727 50.5761 56.2057 50.5761 57.0386 50.5761C57.7538 50.5761 58.4689 50.5761 59.18 50.568C59.3791 50.5639 59.7488 50.4178 59.7488 50.361C59.7204 49.9511 60.0373 49.3991 59.5497 49.1556C58.7208 48.7457 58.5339 48.1044 58.5339 47.2603C58.5502 41.8786 58.542 36.4969 58.5461 31.1193C58.5461 30.8636 58.4974 30.5795 58.5908 30.3563C58.733 30.0194 58.9159 29.6419 59.1922 29.4228C59.8139 28.9398 59.948 28.6395 59.6798 27.8156H54.0237V27.8115Z" fill="white"/>
</mask>
<g mask="url(#mask4_75_2275)">
<path d="M60.0372 27.8115H53.9951V50.5923H60.0372V27.8115Z" fill="url(#paint4_linear_75_2275)"/>
</g>
<defs>
<linearGradient id="paint0_linear_75_2275" x1="103.557" y1="27.731" x2="103.557" y2="51.3763" gradientUnits="userSpaceOnUse">
<stop stop-color="#C18447"/>
<stop offset="0.14" stop-color="#D9AA6F"/>
<stop offset="0.32" stop-color="#F5D199"/>
<stop offset="0.48" stop-color="#CA9C52"/>
<stop offset="0.7" stop-color="#A36E29"/>
<stop offset="0.78" stop-color="#B37A31"/>
<stop offset="0.82" stop-color="#C18447"/>
<stop offset="0.89" stop-color="#D9AA6F"/>
<stop offset="1" stop-color="#F5D199"/>
</linearGradient>
<linearGradient id="paint1_linear_75_2275" x1="36.2353" y1="27.7311" x2="36.2353" y2="51.3724" gradientUnits="userSpaceOnUse">
<stop stop-color="#C18447"/>
<stop offset="0.14" stop-color="#D9AA6F"/>
<stop offset="0.32" stop-color="#F5D199"/>
<stop offset="0.48" stop-color="#CA9C52"/>
<stop offset="0.7" stop-color="#A36E29"/>
<stop offset="0.78" stop-color="#B37A31"/>
<stop offset="0.82" stop-color="#C18447"/>
<stop offset="0.89" stop-color="#D9AA6F"/>
<stop offset="1" stop-color="#F5D199"/>
</linearGradient>
<linearGradient id="paint2_linear_75_2275" x1="134.832" y1="27.7313" x2="134.832" y2="51.3766" gradientUnits="userSpaceOnUse">
<stop stop-color="#C18447"/>
<stop offset="0.14" stop-color="#D9AA6F"/>
<stop offset="0.32" stop-color="#F5D199"/>
<stop offset="0.48" stop-color="#CA9C52"/>
<stop offset="0.7" stop-color="#A36E29"/>
<stop offset="0.78" stop-color="#B37A31"/>
<stop offset="0.82" stop-color="#C18447"/>
<stop offset="0.89" stop-color="#D9AA6F"/>
<stop offset="1" stop-color="#F5D199"/>
</linearGradient>
<linearGradient id="paint3_linear_75_2275" x1="74.8622" y1="27.7146" x2="74.8622" y2="50.8607" gradientUnits="userSpaceOnUse">
<stop stop-color="#C18447"/>
<stop offset="0.14" stop-color="#D9AA6F"/>
<stop offset="0.32" stop-color="#F5D199"/>
<stop offset="0.48" stop-color="#CA9C52"/>
<stop offset="0.7" stop-color="#A36E29"/>
<stop offset="0.78" stop-color="#B37A31"/>
<stop offset="0.82" stop-color="#C18447"/>
<stop offset="0.89" stop-color="#D9AA6F"/>
<stop offset="1" stop-color="#F5D199"/>
</linearGradient>
<linearGradient id="paint4_linear_75_2275" x1="57.0159" y1="27.7311" x2="57.0159" y2="51.3723" gradientUnits="userSpaceOnUse">
<stop stop-color="#C18447"/>
<stop offset="0.14" stop-color="#D9AA6F"/>
<stop offset="0.32" stop-color="#F5D199"/>
<stop offset="0.48" stop-color="#CA9C52"/>
<stop offset="0.7" stop-color="#A36E29"/>
<stop offset="0.78" stop-color="#B37A31"/>
<stop offset="0.82" stop-color="#C18447"/>
<stop offset="0.89" stop-color="#D9AA6F"/>
<stop offset="1" stop-color="#F5D199"/>
</linearGradient>
</defs>
</svg>
