<svg width="100" height="100" viewBox="0 0 100 100" fill="none" xmlns="http://www.w3.org/2000/svg">
<rect width="100" height="100" fill="white"/>
<mask id="mask0_75_2313" style="mask-type:luminance" maskUnits="userSpaceOnUse" x="10" y="13" width="80" height="75">
<path d="M89.1327 13H66.4817C66.4418 15.0846 65.8038 17.2089 68.7415 18.4172C54.7574 29.9287 39.1782 38.4661 24.8353 49.3535C24.8353 39.9531 24.7555 31.0705 24.9283 22.1747C24.9549 20.8735 25.8455 19.2669 26.8425 18.3508C28.8497 16.5052 29.315 15.682 28.5307 13.0133H10.0271C10.0271 13.9693 10.0936 14.8057 10.0138 15.6289C9.92075 16.6778 10.2929 17.3152 11.2899 17.7135C13.4965 18.5898 14.2808 20.4221 14.2941 22.6128C14.3207 40.9357 14.3207 59.2585 14.2941 77.5813C14.2941 79.8517 13.3769 81.6442 11.1437 82.6134C10.7183 82.7993 10.1467 83.2507 10.1069 83.6358C9.97392 84.8573 10.0537 86.0921 10.0537 87.3535H28.863C28.863 86.1585 28.9827 85.1228 28.8098 84.1403C28.7168 83.5561 28.2914 82.7993 27.8129 82.547C25.7259 81.4848 24.8885 79.7588 24.8619 77.568C24.8353 72.9475 24.822 68.3137 24.8619 63.6931C24.8885 61.2501 25.7126 59.1124 27.6667 57.5058C28.637 56.6959 29.5277 55.7798 30.5379 55.0362C33.13 53.1243 32.2793 52.8056 35.0973 55.1026C47.885 65.4988 60.6594 75.9216 73.4604 86.3045C74.0852 86.8091 74.8961 87.3667 75.6272 87.38C79.841 87.4729 84.0548 87.4331 88.2819 87.4066C88.6541 87.4066 89.1858 87.2605 89.3586 86.995C90.1562 85.8 89.2124 83.118 87.923 82.3744C84.8524 80.6085 81.5823 79.0816 78.8307 76.9041C68.3028 68.5792 57.961 60.0551 47.5527 51.5974C45.705 50.0971 43.8573 48.5967 41.8634 46.9636C42.6211 46.4325 43.1528 46.0475 43.6978 45.689C48.4566 42.5289 53.2819 39.4619 57.9743 36.2089C67.3723 29.703 76.6507 23.0643 87.0988 18.2446C89.784 16.9965 90.103 16.0272 89.1327 13Z" fill="white"/>
</mask>
<g mask="url(#mask0_75_2313)">
<path d="M90.1433 13H9.92114V87.4729H90.1433V13Z" fill="#212E74"/>
</g>
</svg>
